<svg width="130" height="32" viewBox="0 0 130 32" fill="none" xmlns="http://www.w3.org/2000/svg">
<path d="M116.116 26.1549V22.9079H124.266C124.664 22.9079 125.006 22.8196 125.293 22.6428C125.603 22.4661 125.835 22.2342 125.989 21.9471C126.166 21.6599 126.254 21.3617 126.254 21.0525C126.254 20.6991 126.177 20.3898 126.022 20.1248C125.868 19.8597 125.647 19.6499 125.36 19.4953C125.073 19.3186 124.741 19.2302 124.366 19.2302H121.053C119.97 19.2302 119.009 19.0535 118.17 18.7001C117.331 18.3467 116.668 17.8055 116.182 17.0766C115.696 16.3256 115.453 15.3868 115.453 14.2603C115.453 13.3547 115.674 12.5264 116.116 11.7754C116.58 11.0244 117.198 10.417 117.971 9.95311C118.744 9.48925 119.617 9.25732 120.589 9.25732H128.441V12.5043H120.953C120.445 12.5043 120.025 12.67 119.694 13.0013C119.363 13.3105 119.197 13.6971 119.197 14.1609C119.197 14.6027 119.363 14.9892 119.694 15.3206C120.025 15.6519 120.467 15.8176 121.019 15.8176H124.233C125.448 15.8176 126.486 16.0053 127.348 16.3808C128.209 16.7563 128.861 17.3196 129.303 18.0706C129.766 18.8216 129.998 19.7714 129.998 20.92C129.998 21.8477 129.766 22.7202 129.303 23.5374C128.839 24.3326 128.198 24.9732 127.381 25.4591C126.586 25.923 125.68 26.1549 124.664 26.1549H116.116Z" fill="black"/>
<path d="M105.962 26.1521C104.063 26.1521 102.395 25.7987 100.959 25.0919C99.5455 24.3629 98.4411 23.369 97.6459 22.1099C96.8507 20.8288 96.4531 19.3599 96.4531 17.7033C96.4531 15.9583 96.8065 14.4232 97.5134 13.0979C98.2202 11.7726 99.1921 10.7344 100.429 9.98344C101.666 9.23243 103.091 8.85693 104.703 8.85693C106.514 8.85693 108.005 9.24348 109.176 10.0166C110.347 10.7897 111.208 11.8278 111.76 13.131C112.335 14.4342 112.622 15.8921 112.622 17.5045C112.622 17.7254 112.611 17.9794 112.589 18.2666C112.567 18.5537 112.533 18.7746 112.489 18.9292H100.495C100.628 19.8127 100.948 20.5527 101.456 21.1491C101.964 21.7234 102.605 22.1651 103.378 22.4744C104.151 22.7615 105.012 22.9051 105.962 22.9051H110.501V26.1521H105.962ZM100.462 16.3449H108.812C108.789 15.9252 108.723 15.5055 108.613 15.0858C108.524 14.6662 108.37 14.2686 108.149 13.8931C107.95 13.5176 107.685 13.1973 107.354 12.9322C107.044 12.6451 106.669 12.4242 106.227 12.2696C105.785 12.0929 105.277 12.0045 104.703 12.0045C104.04 12.0045 103.455 12.137 102.947 12.4021C102.439 12.6451 102.008 12.9764 101.655 13.3961C101.302 13.7937 101.025 14.2575 100.827 14.7876C100.65 15.2957 100.528 15.8148 100.462 16.3449Z" fill="black"/>
<path d="M92.045 26.1549C90.3 26.1549 88.7428 25.7794 87.3733 25.0284C86.0039 24.2774 84.9215 23.2724 84.1264 22.0133C83.3312 20.7322 82.9336 19.2965 82.9336 17.7061C82.9336 16.1157 83.3312 14.6911 84.1264 13.432C84.9215 12.1509 86.0039 11.1348 87.3733 10.3838C88.7428 9.63283 90.3 9.25732 92.045 9.25732H94.0992V12.5043H91.9788C90.9627 12.5043 90.0571 12.7362 89.2619 13.2001C88.4888 13.6419 87.8814 14.2603 87.4396 15.0555C86.9978 15.8507 86.777 16.7342 86.777 17.7061C86.777 18.678 86.9978 19.5615 87.4396 20.3567C87.8814 21.1519 88.4888 21.7814 89.2619 22.2453C90.0571 22.687 90.9627 22.9079 91.9788 22.9079H94.0992V26.1549H92.045Z" fill="black"/>
<path d="M69.495 26.5497C67.8826 26.5497 66.491 26.1521 65.3204 25.3569C64.1497 24.5617 63.244 23.5015 62.6035 22.1762C61.985 20.8288 61.6758 19.3489 61.6758 17.7364C61.6758 16.0577 62.0292 14.5557 62.736 13.2304C63.4649 11.883 64.492 10.8228 65.8173 10.0497C67.1647 9.25452 68.7661 8.85693 70.6215 8.85693C72.4549 8.85693 74.0121 9.25452 75.2932 10.0497C76.5964 10.8228 77.5904 11.883 78.2752 13.2304C78.982 14.5557 79.3354 16.0356 79.3354 17.6702V26.1521H75.5252V23.0045H75.4589C75.1276 23.623 74.6968 24.2083 74.1667 24.7605C73.6366 25.2906 72.985 25.7214 72.2119 26.0527C71.4388 26.384 70.5332 26.5497 69.495 26.5497ZM70.5222 23.3027C71.5161 23.3027 72.3776 23.0597 73.1065 22.5738C73.8575 22.0658 74.4318 21.3921 74.8294 20.5527C75.2491 19.6913 75.4589 18.7304 75.4589 17.6702C75.4589 16.6099 75.2601 15.6712 74.8625 14.8539C74.4649 14.0146 73.9017 13.3519 73.1728 12.866C72.4438 12.3579 71.5713 12.1039 70.5553 12.1039C69.495 12.1039 68.5894 12.3579 67.8384 12.866C67.0874 13.3519 66.5131 14.0146 66.1155 14.8539C65.7179 15.6933 65.5191 16.6431 65.5191 17.7033C65.5191 18.7415 65.7179 19.6913 66.1155 20.5527C66.5131 21.3921 67.0764 22.0658 67.8053 22.5738C68.5563 23.0597 69.4619 23.3027 70.5222 23.3027Z" fill="black"/>
<path d="M51.1094 26.1549V14.0615C51.1094 12.5595 51.5291 11.3888 52.3684 10.5495C53.2299 9.68805 54.4116 9.25732 55.9136 9.25732H59.9889V12.5043H56.6094C56.0792 12.5043 55.6596 12.6589 55.3503 12.9682C55.0632 13.2774 54.9196 13.6971 54.9196 14.2272V26.1549H51.1094Z" fill="black"/>
<path d="M30.5352 26.1521V16.4111C30.5352 14.9533 30.8665 13.6611 31.5291 12.5346C32.1918 11.386 33.1305 10.4915 34.3454 9.85091C35.5602 9.18826 36.9849 8.85693 38.6195 8.85693C40.254 8.85693 41.6677 9.18826 42.8604 9.85091C44.0753 10.4915 45.0141 11.386 45.6767 12.5346C46.3394 13.6611 46.6707 14.9533 46.6707 16.4111V26.1521H42.8936V16.4443C42.8936 15.5828 42.6948 14.8318 42.2972 14.1913C41.8996 13.5286 41.3695 13.0206 40.7068 12.6672C40.0663 12.2917 39.3594 12.1039 38.5863 12.1039C37.8353 12.1039 37.1285 12.2917 36.4659 12.6672C35.8253 13.0206 35.3062 13.5286 34.9086 14.1913C34.5331 14.8318 34.3454 15.5828 34.3454 16.4443V26.1521H30.5352Z" fill="black"/>
<path d="M22.1609 26.1536V9.25601H25.9711V26.1536H22.1609ZM24.0495 6.90361C23.3868 6.90361 22.8125 6.66064 22.3266 6.17469C21.8406 5.68875 21.5977 5.11445 21.5977 4.4518C21.5977 3.78915 21.8406 3.21486 22.3266 2.72892C22.8125 2.24297 23.3868 2 24.0495 2C24.7342 2 25.3085 2.24297 25.7723 2.72892C26.2583 3.21486 26.5013 3.78915 26.5013 4.4518C26.5013 5.11445 26.2583 5.68875 25.7723 6.17469C25.3085 6.66064 24.7342 6.90361 24.0495 6.90361Z" fill="black"/>
<path d="M3.1348 26.4426C2.81517 26.4426 2.56931 26.3073 2.3972 26.0369C2.22509 25.791 2.10216 25.4714 2.0284 25.078C1.95464 24.6846 1.91776 24.2666 1.91776 23.8241C1.91776 23.3323 1.95464 22.7054 2.0284 21.9432C2.10216 21.1564 2.18821 20.2221 2.28656 19.1403L4.2412 0.921602H9.73632C11.482 0.921602 12.8342 0.897015 13.7931 0.84784C14.752 0.77408 15.465 0.712613 15.9322 0.663441C16.3993 0.58968 16.7558 0.5528 17.0017 0.5528C17.2721 0.5528 17.4565 0.601973 17.5549 0.70032C17.6778 0.774081 17.7393 0.995361 17.7393 1.36416C17.7393 1.80672 17.6532 2.28616 17.4811 2.80248C17.309 3.3188 17.0754 3.76136 16.7804 4.13016C16.5099 4.49896 16.1903 4.68336 15.8215 4.68336C15.674 4.68336 15.4773 4.68336 15.2314 4.68336C15.0102 4.65877 14.7397 4.63419 14.4201 4.6096C14.125 4.56043 13.8054 4.51125 13.4612 4.46208L8.26112 3.6876L6.0852 26.4426H3.1348ZM5.12632 15.1204L5.60576 12.2806H7.376C8.43323 12.2806 9.45357 12.2438 10.437 12.17C11.4451 12.0962 12.2933 12.0225 12.9818 11.9487C13.6948 11.875 14.1373 11.8381 14.3094 11.8381C14.5061 11.8381 14.6537 11.8995 14.752 12.0225C14.8503 12.1208 14.8995 12.2683 14.8995 12.465C14.8995 12.8338 14.6414 13.2149 14.125 13.6083C13.6333 14.0017 12.9941 14.3336 12.2073 14.6041C11.4451 14.8745 10.6583 15.0221 9.84696 15.0466L5.12632 15.1204Z" fill="#078869"/>
</svg>
